<svg width="205.7px" height="176.03999023437498px" xmlns="http://www.w3.org/2000/svg" viewBox="147.15 -13.019995117187491 205.7 176.03999023437498" style="background: rgba(0, 0, 0, 0) none repeat scroll 0% 0%;" preserveAspectRatio="xMidYMid"><defs><filter id="editing-vr"><feFlood flood-color="#f00" flood-opacity="0.7" result="c1"></feFlood><feFlood flood-color="#00f" flood-opacity="0.7" result="c3"></feFlood><feComposite operator="in" in="c1" in2="SourceAlpha" result="text-c1"></feComposite><feComposite operator="in" in="c3" in2="SourceAlpha" result="text-c3"></feComposite><feOffset in="text-c1" dx="5" dy="-1" result="text1"></feOffset><feOffset in="text-c3" dx="-5" dy="1" result="text3"></feOffset><feBlend in="SourceGraphic" in2="text1" mode="multiply" result="text4"></feBlend><feBlend in="text4" in2="text3" mode="multiply"></feBlend></filter></defs><g filter="url(#editing-vr)"><g transform="translate(176.40382266044617, 104.18499946594238)"><path d="M55.55-40.96L55.55-40.96Q55.55-35.52 51.71-31.58L51.71-31.58L51.71-31.58Q47.87-27.65 40.51-25.92L40.51-25.92L40.51-25.92Q44.48-24.83 46.53-22.37L46.53-22.37L46.53-22.37Q48.58-19.90 48.58-16.70L48.58-16.70L48.58-16.70Q48.58-11.65 45.41-7.94L45.41-7.94L45.41-7.94Q42.24-4.22 36.16-2.21L36.16-2.21L36.16-2.21Q30.08-0.19 21.50-0.19L21.50-0.19L21.50-0.19Q18.30-0.19 16.38-0.38L16.38-0.38L16.38-0.38Q16.32 1.41 14.85 2.30L14.85 2.30L14.85 2.30Q13.38 3.20 11.07 3.20L11.07 3.20L11.07 3.20Q8.77 3.20 7.90 2.18L7.90 2.18L7.90 2.18Q7.04 1.15 7.17-0.83L7.17-0.83L7.17-0.83Q7.74-9.79 9.41-19.62L9.41-19.62L9.41-19.62Q11.07-29.44 13.63-38.59L13.63-38.59L13.63-38.59Q14.08-40.19 15.42-40.83L15.42-40.83L15.42-40.83Q16.77-41.47 18.94-41.47L18.94-41.47L18.94-41.47Q22.85-41.47 22.85-39.30L22.85-39.30L22.85-39.30Q22.85-38.40 22.46-37.25L22.46-37.25L22.46-37.25Q20.80-32.26 19.14-23.71L19.14-23.71L19.14-23.71Q17.47-15.17 16.77-7.42L16.77-7.42L16.77-7.42Q19.84-7.17 21.76-7.17L21.76-7.17L21.76-7.17Q30.72-7.17 34.91-9.76L34.91-9.76L34.91-9.76Q39.10-12.35 39.10-16.38L39.10-16.38L39.10-16.38Q39.10-19.20 36.70-21.12L36.70-21.12L36.70-21.12Q34.30-23.04 28.67-23.23L28.67-23.23L28.67-23.23Q27.39-23.30 26.88-23.87L26.88-23.87L26.88-23.87Q26.37-24.45 26.37-25.73L26.37-25.73L26.37-25.73Q26.37-27.58 27.14-28.74L27.14-28.74L27.14-28.74Q27.90-29.89 29.95-29.95L29.95-29.95L29.95-29.95Q34.50-30.08 38.18-31.30L38.18-31.30L38.18-31.30Q41.86-32.51 43.97-34.72L43.97-34.72L43.97-34.72Q46.08-36.93 46.08-39.87L46.08-39.87L46.08-39.87Q46.08-43.58 42.43-45.73L42.43-45.73L42.43-45.73Q38.78-47.87 31.23-47.87L31.23-47.87L31.23-47.87Q24.38-47.87 17.98-46.11L17.98-46.11L17.98-46.11Q11.58-44.35 7.10-41.66L7.10-41.66L7.10-41.66Q5.06-40.45 3.65-40.45L3.65-40.45L3.65-40.45Q2.50-40.45 1.89-41.25L1.89-41.25L1.89-41.25Q1.28-42.05 1.28-43.26L1.28-43.26L1.28-43.26Q1.28-44.86 1.95-46.02L1.95-46.02L1.95-46.02Q2.62-47.17 5.18-48.64L5.18-48.64L5.18-48.64Q10.56-51.71 17.79-53.44L17.79-53.44L17.79-53.44Q25.02-55.17 32.58-55.17L32.58-55.17L32.58-55.17Q44.16-55.17 49.86-51.26L49.86-51.26L49.86-51.26Q55.55-47.36 55.55-40.96L55.55-40.96ZM62.53 0.32L62.53 0.32Q59.65 0.32 57.82-2.34L57.82-2.34L57.82-2.34Q56.00-4.99 56.00-8.96L56.00-8.96L56.00-8.96Q56.00-13.76 56.64-17.76L56.64-17.76L56.64-17.76Q57.28-21.76 58.75-26.24L58.75-26.24L58.75-26.24Q59.39-28.16 60.54-28.99L60.54-28.99L60.54-28.99Q61.70-29.82 64.19-29.82L64.19-29.82L64.19-29.82Q65.60-29.82 66.14-29.38L66.14-29.38L66.14-29.38Q66.69-28.93 66.69-28.03L66.69-28.03L66.69-28.03Q66.69-27.52 65.98-24.58L65.98-24.58L65.98-24.58Q65.34-22.21 64.96-20.29L64.96-20.29L64.96-20.29Q63.68-13.57 63.68-11.33L63.68-11.33L63.68-11.33Q63.68-9.98 64-9.44L64-9.44L64-9.44Q64.32-8.90 65.02-8.90L65.02-8.90L65.02-8.90Q65.98-8.90 67.42-10.82L67.42-10.82L67.42-10.82Q68.86-12.74 70.50-16.64L70.50-16.64L70.50-16.64Q72.13-20.54 73.66-26.24L73.66-26.24L73.66-26.24Q74.18-28.16 75.23-28.99L75.23-28.99L75.23-28.99Q76.29-29.82 78.40-29.82L78.40-29.82L78.40-29.82Q79.87-29.82 80.45-29.47L80.45-29.47L80.45-29.47Q81.02-29.12 81.02-28.16L81.02-28.16L81.02-28.16Q81.02-26.56 79.42-19.39L79.42-19.39L79.42-19.39Q77.63-11.20 77.63-9.28L77.63-9.28L77.63-9.28Q77.63-8.06 78.14-7.39L78.14-7.39L78.14-7.39Q78.66-6.72 79.49-6.72L79.49-6.72L79.49-6.72Q80.77-6.72 82.53-8.29L82.53-8.29L82.53-8.29Q84.29-9.86 87.23-13.38L87.23-13.38L87.23-13.38Q88-14.27 88.96-14.27L88.96-14.27L88.96-14.27Q89.79-14.27 90.27-13.50L90.27-13.50L90.27-13.50Q90.75-12.74 90.75-11.39L90.75-11.39L90.75-11.39Q90.75-8.83 89.54-7.42L89.54-7.42L89.54-7.42Q86.78-4.03 83.62-1.86L83.62-1.86L83.62-1.86Q80.45 0.32 76.42 0.32L76.42 0.32L76.42 0.32Q73.34 0.32 71.90-2.05L71.90-2.05L71.90-2.05Q70.46-4.42 70.46-8.70L70.46-8.70L70.46-8.70Q69.38-4.35 67.20-2.02L67.20-2.02L67.20-2.02Q65.02 0.32 62.53 0.32L62.53 0.32ZM117.50-14.27L117.50-14.27Q118.34-14.27 118.82-13.50L118.82-13.50L118.82-13.50Q119.30-12.74 119.30-11.39L119.30-11.39L119.30-11.39Q119.30-9.02 118.08-7.42L118.08-7.42L118.08-7.42Q115.07-3.52 110.62-1.28L110.62-1.28L110.62-1.28Q106.18 0.96 100.61 0.96L100.61 0.96L100.61 0.96Q96.26 0.96 93.06-0.35L93.06-0.35L93.06-0.35Q89.86-1.66 88.16-3.94L88.16-3.94L88.16-3.94Q86.46-6.21 86.46-9.02L86.46-9.02L86.46-9.02Q86.46-13.25 89.86-16.51L89.86-16.51L89.86-16.51Q93.25-19.78 99.58-22.78L99.58-22.78L89.09-22.53L89.09-22.53Q87.68-22.46 86.94-23.52L86.94-23.52L86.94-23.52Q86.21-24.58 86.21-26.05L86.21-26.05L86.21-26.05Q86.21-27.58 86.94-28.77L86.94-28.77L86.94-28.77Q87.68-29.95 88.96-29.95L88.96-29.95L88.96-29.95Q91.90-29.95 96.83-29.50L96.83-29.50L96.83-29.50Q97.86-29.44 100.58-29.25L100.58-29.25L100.58-29.25Q103.30-29.06 105.15-29.06L105.15-29.06L105.15-29.06Q105.79-29.06 107.58-29.57L107.58-29.57L107.58-29.57Q107.90-29.63 108.83-29.89L108.83-29.89L108.83-29.89Q109.76-30.14 110.40-30.14L110.40-30.14L110.40-30.14Q111.42-30.14 112.10-29.25L112.10-29.25L112.10-29.25Q112.77-28.35 112.77-26.50L112.77-26.50L112.77-26.50Q112.77-24.45 111.81-23.30L111.81-23.30L111.81-23.30Q110.85-22.14 108.80-21.25L108.80-21.25L108.80-21.25Q102.98-18.75 99.14-15.90L99.14-15.90L99.14-15.90Q95.30-13.06 95.30-10.24L95.30-10.24L95.30-10.24Q95.30-8.45 96.96-7.30L96.96-7.30L96.96-7.30Q98.62-6.14 101.89-6.14L101.89-6.14L101.89-6.14Q105.47-6.14 109.15-7.94L109.15-7.94L109.15-7.94Q112.83-9.73 115.78-13.38L115.78-13.38L115.78-13.38Q116.54-14.27 117.50-14.27L117.50-14.27ZM145.98-14.27L145.98-14.27Q146.82-14.27 147.30-13.50L147.30-13.50L147.30-13.50Q147.78-12.74 147.78-11.39L147.78-11.39L147.78-11.39Q147.78-9.02 146.56-7.42L146.56-7.42L146.56-7.42Q143.55-3.52 139.10-1.28L139.10-1.28L139.10-1.28Q134.66 0.96 129.09 0.96L129.09 0.96L129.09 0.96Q124.74 0.96 121.54-0.35L121.54-0.35L121.54-0.35Q118.34-1.66 116.64-3.94L116.64-3.94L116.64-3.94Q114.94-6.21 114.94-9.02L114.94-9.02L114.94-9.02Q114.94-13.25 118.34-16.51L118.34-16.51L118.34-16.51Q121.73-19.78 128.06-22.78L128.06-22.78L117.57-22.53L117.57-22.53Q116.16-22.46 115.42-23.52L115.42-23.52L115.42-23.52Q114.69-24.58 114.69-26.05L114.69-26.05L114.69-26.05Q114.69-27.58 115.42-28.77L115.42-28.77L115.42-28.77Q116.16-29.95 117.44-29.95L117.44-29.95L117.44-29.95Q120.38-29.95 125.31-29.50L125.31-29.50L125.31-29.50Q126.34-29.44 129.06-29.25L129.06-29.25L129.06-29.25Q131.78-29.06 133.63-29.06L133.63-29.06L133.63-29.06Q134.27-29.06 136.06-29.57L136.06-29.57L136.06-29.57Q136.38-29.63 137.31-29.89L137.31-29.89L137.31-29.89Q138.24-30.14 138.88-30.14L138.88-30.14L138.88-30.14Q139.90-30.14 140.58-29.25L140.58-29.25L140.58-29.25Q141.25-28.35 141.25-26.50L141.25-26.50L141.25-26.50Q141.25-24.45 140.29-23.30L140.29-23.30L140.29-23.30Q139.33-22.14 137.28-21.25L137.28-21.25L137.28-21.25Q131.46-18.75 127.62-15.90L127.62-15.90L127.62-15.90Q123.78-13.06 123.78-10.24L123.78-10.24L123.78-10.24Q123.78-8.45 125.44-7.30L125.44-7.30L125.44-7.30Q127.10-6.14 130.37-6.14L130.37-6.14L130.37-6.14Q133.95-6.14 137.63-7.94L137.63-7.94L137.63-7.94Q141.31-9.73 144.26-13.38L144.26-13.38L144.26-13.38Q145.02-14.27 145.98-14.27L145.98-14.27Z" fill="#444"></path></g></g><style>text {
  font-size: 64px;
  font-family: Arial Black;
  dominant-baseline: central;
  text-anchor: middle;
}</style></svg>